<?xml version="1.0" encoding="UTF-8"?>
<svg id="_레이어_1" data-name="레이어_1" xmlns="http://www.w3.org/2000/svg" xmlns:xlink="http://www.w3.org/1999/xlink" viewBox="0 0 465.03 141.43">
  <defs>
    <style>
      .cls-1 {
        fill: none;
      }

      .cls-2 {
        fill: #fff;
        font-family: KoreanGGD5-R, KoreanGGD5R;
        font-size: 87.26px;
        stroke: #231815;
        stroke-miterlimit: 10;
      }

      .cls-3 {
        fill: #b5b5b6;
        font-family: KoreanGD15-R, KoreanGD15R;
        font-size: 20.62px;
      }

      .cls-4 {
        fill: url(#linear-gradient);
      }

      .cls-5 {
        clip-path: url(#clippath);
      }
    </style>
    <clipPath id="clippath">
      <path class="cls-1" d="M114.51,53.85h-.13c-7.38-.04-14.07-3.04-18.91-7.89-4.87-4.87-7.89-11.61-7.89-19.04,0-4.63-1.9-8.85-4.96-11.91-3.06-3.06-7.27-4.96-11.91-4.96s-8.85,1.9-11.9,4.96c-3.06,3.06-4.96,7.27-4.96,11.91v21.9c0,4.66,1.89,8.87,4.94,11.92,3.05,3.05,7.27,4.94,11.92,4.94,7.43,0,14.17,3.01,19.04,7.89,7.56,7.56,7.89,14.79,7.89,24.07v16.86c0,7.41-3.03,14.14-7.91,19.02-4.88,4.88-11.61,7.91-19.02,7.91s-14.14-3.03-19.02-7.91c-4.88-4.88-7.91-11.61-7.91-19.02,0-4.65-1.89-8.87-4.94-11.92-3.05-3.05-7.27-4.94-11.93-4.94h-.14c-7.35-.04-14.03-3.06-18.88-7.91-4.88-4.88-7.91-11.61-7.91-19.02s3.03-14.14,7.91-19.02c4.88-4.88,11.61-7.91,19.02-7.91h6.8v10.06h-6.8c-4.63,0-8.85,1.9-11.91,4.96-3.06,3.06-4.96,7.27-4.96,11.9s1.9,8.85,4.96,11.91c3.06,3.06,7.27,4.96,11.91,4.96h.14c7.38.04,14.06,3.04,18.9,7.89,4.87,4.87,7.89,11.61,7.89,19.04,0,4.63,1.9,8.85,4.96,11.91,3.06,3.06,7.27,4.96,11.9,4.96s8.85-1.9,11.91-4.96c3.06-3.06,4.96-7.27,4.96-11.91v-21.92c0-4.65-1.89-8.85-4.94-11.9-3.05-3.05-7.27-4.94-11.92-4.94-7.43,0-14.17-3.02-19.04-7.89-7.24-7.24-7.89-14.51-7.89-24.07v-16.86c0-7.41,3.03-14.14,7.91-19.02,4.88-4.88,11.61-7.91,19.02-7.91s14.14,3.03,19.02,7.91c4.88,4.88,7.91,11.61,7.91,19.02,0,4.66,1.89,8.87,4.94,11.92,3.05,3.05,7.27,4.94,11.92,4.94h0s.13,0,.13,0c7.36.04,14.04,3.06,18.89,7.91,4.88,4.88,7.91,11.61,7.91,19.02s-3.03,14.15-7.91,19.02c-4.88,4.88-11.61,7.91-19.02,7.91h-6.8v-10.06h6.8c4.63,0,8.85-1.9,11.91-4.96,3.06-3.06,4.96-7.27,4.96-11.91s-1.9-8.84-4.96-11.9c-3.06-3.06-7.27-4.96-11.91-4.96"/>
    </clipPath>
    <linearGradient id="linear-gradient" x1="25.57" y1="115.86" x2="121.32" y2="20.11" gradientUnits="userSpaceOnUse">
      <stop offset="0" stop-color="#228dce"/>
      <stop offset="1" stop-color="#58bfba"/>
    </linearGradient>
  </defs>
  <g class="cls-5">
    <rect class="cls-4" width="141.43" height="141.43"/>
  </g>
  <text class="cls-2" transform="translate(150.39 73.94)"><tspan x="0" y="0">탑메디컬</tspan></text>
  <text class="cls-3" transform="translate(156.32 121.93)"><tspan x="0" y="0">최고의 병원 창업 및 마케팅 지원그룹</tspan></text>
</svg>